<mxfile host="app.diagrams.net" agent="Mozilla/5.0 (Windows NT 10.0; Win64; x64) AppleWebKit/537.36 (KHTML, like Gecko) Chrome/134.0.0.0 Safari/537.36" version="26.1.1">
  <diagram name="Página-1" id="JWdp9MI5vgtcaVBixJrD">
    <mxGraphModel dx="1195" dy="650" grid="1" gridSize="10" guides="1" tooltips="1" connect="1" arrows="1" fold="1" page="1" pageScale="1" pageWidth="827" pageHeight="1169" math="0" shadow="0">
      <root>
        <mxCell id="0" />
        <mxCell id="1" parent="0" />
        <mxCell id="42t9e9m5rP8orQ9ALi-o-5" value="" style="edgeStyle=orthogonalEdgeStyle;rounded=0;orthogonalLoop=1;jettySize=auto;html=1;" edge="1" parent="1" source="42t9e9m5rP8orQ9ALi-o-1" target="42t9e9m5rP8orQ9ALi-o-2">
          <mxGeometry relative="1" as="geometry" />
        </mxCell>
        <mxCell id="42t9e9m5rP8orQ9ALi-o-1" value="Inicio" style="rounded=1;whiteSpace=wrap;html=1;" vertex="1" parent="1">
          <mxGeometry x="30" y="20" width="120" height="60" as="geometry" />
        </mxCell>
        <mxCell id="42t9e9m5rP8orQ9ALi-o-6" value="" style="edgeStyle=orthogonalEdgeStyle;rounded=0;orthogonalLoop=1;jettySize=auto;html=1;" edge="1" parent="1" source="42t9e9m5rP8orQ9ALi-o-2" target="42t9e9m5rP8orQ9ALi-o-3">
          <mxGeometry relative="1" as="geometry" />
        </mxCell>
        <mxCell id="42t9e9m5rP8orQ9ALi-o-2" value="Recebe valor 1" style="html=1;strokeWidth=2;shape=manualInput;whiteSpace=wrap;rounded=1;size=26;arcSize=11;" vertex="1" parent="1">
          <mxGeometry x="220" y="20" width="100" height="60" as="geometry" />
        </mxCell>
        <mxCell id="42t9e9m5rP8orQ9ALi-o-7" value="" style="edgeStyle=orthogonalEdgeStyle;rounded=0;orthogonalLoop=1;jettySize=auto;html=1;" edge="1" parent="1" source="42t9e9m5rP8orQ9ALi-o-3" target="42t9e9m5rP8orQ9ALi-o-4">
          <mxGeometry relative="1" as="geometry" />
        </mxCell>
        <mxCell id="42t9e9m5rP8orQ9ALi-o-3" value="Recebe valor 2" style="html=1;strokeWidth=2;shape=manualInput;whiteSpace=wrap;rounded=1;size=26;arcSize=11;" vertex="1" parent="1">
          <mxGeometry x="364" y="20" width="100" height="60" as="geometry" />
        </mxCell>
        <mxCell id="42t9e9m5rP8orQ9ALi-o-9" value="" style="edgeStyle=orthogonalEdgeStyle;rounded=0;orthogonalLoop=1;jettySize=auto;html=1;" edge="1" parent="1" source="42t9e9m5rP8orQ9ALi-o-4" target="42t9e9m5rP8orQ9ALi-o-8">
          <mxGeometry relative="1" as="geometry" />
        </mxCell>
        <mxCell id="42t9e9m5rP8orQ9ALi-o-4" value="recebe valor 3" style="html=1;strokeWidth=2;shape=manualInput;whiteSpace=wrap;rounded=1;size=26;arcSize=11;" vertex="1" parent="1">
          <mxGeometry x="520" y="20" width="100" height="60" as="geometry" />
        </mxCell>
        <mxCell id="42t9e9m5rP8orQ9ALi-o-14" style="edgeStyle=orthogonalEdgeStyle;rounded=0;orthogonalLoop=1;jettySize=auto;html=1;" edge="1" parent="1" source="42t9e9m5rP8orQ9ALi-o-8" target="42t9e9m5rP8orQ9ALi-o-13">
          <mxGeometry relative="1" as="geometry" />
        </mxCell>
        <mxCell id="42t9e9m5rP8orQ9ALi-o-15" value="Não" style="edgeLabel;html=1;align=center;verticalAlign=middle;resizable=0;points=[];" vertex="1" connectable="0" parent="42t9e9m5rP8orQ9ALi-o-14">
          <mxGeometry x="-0.0154" y="-4" relative="1" as="geometry">
            <mxPoint as="offset" />
          </mxGeometry>
        </mxCell>
        <mxCell id="42t9e9m5rP8orQ9ALi-o-34" style="edgeStyle=orthogonalEdgeStyle;rounded=0;orthogonalLoop=1;jettySize=auto;html=1;entryX=1;entryY=0.567;entryDx=0;entryDy=0;entryPerimeter=0;" edge="1" parent="1" target="42t9e9m5rP8orQ9ALi-o-10">
          <mxGeometry relative="1" as="geometry">
            <mxPoint x="700" y="90" as="sourcePoint" />
            <mxPoint x="640" y="180" as="targetPoint" />
          </mxGeometry>
        </mxCell>
        <mxCell id="42t9e9m5rP8orQ9ALi-o-8" value="valor 1 &amp;gt; valor 2" style="strokeWidth=2;html=1;shape=mxgraph.flowchart.decision;whiteSpace=wrap;" vertex="1" parent="1">
          <mxGeometry x="680" y="10" width="100" height="100" as="geometry" />
        </mxCell>
        <mxCell id="42t9e9m5rP8orQ9ALi-o-35" style="edgeStyle=orthogonalEdgeStyle;rounded=0;orthogonalLoop=1;jettySize=auto;html=1;entryX=1;entryY=0.5;entryDx=0;entryDy=0;" edge="1" parent="1" source="42t9e9m5rP8orQ9ALi-o-10" target="42t9e9m5rP8orQ9ALi-o-17">
          <mxGeometry relative="1" as="geometry" />
        </mxCell>
        <mxCell id="42t9e9m5rP8orQ9ALi-o-10" value="valor 1 &amp;gt; valor 3" style="strokeWidth=2;html=1;shape=mxgraph.flowchart.decision;whiteSpace=wrap;" vertex="1" parent="1">
          <mxGeometry x="520" y="100" width="100" height="100" as="geometry" />
        </mxCell>
        <mxCell id="42t9e9m5rP8orQ9ALi-o-23" value="" style="edgeStyle=orthogonalEdgeStyle;rounded=0;orthogonalLoop=1;jettySize=auto;html=1;" edge="1" parent="1" source="42t9e9m5rP8orQ9ALi-o-13" target="42t9e9m5rP8orQ9ALi-o-22">
          <mxGeometry relative="1" as="geometry" />
        </mxCell>
        <mxCell id="42t9e9m5rP8orQ9ALi-o-30" value="sim" style="edgeLabel;html=1;align=center;verticalAlign=middle;resizable=0;points=[];" vertex="1" connectable="0" parent="42t9e9m5rP8orQ9ALi-o-23">
          <mxGeometry x="-0.525" relative="1" as="geometry">
            <mxPoint as="offset" />
          </mxGeometry>
        </mxCell>
        <mxCell id="42t9e9m5rP8orQ9ALi-o-41" style="edgeStyle=orthogonalEdgeStyle;rounded=0;orthogonalLoop=1;jettySize=auto;html=1;entryX=1;entryY=0.5;entryDx=0;entryDy=0;exitX=0.5;exitY=1;exitDx=0;exitDy=0;exitPerimeter=0;" edge="1" parent="1" source="42t9e9m5rP8orQ9ALi-o-13" target="42t9e9m5rP8orQ9ALi-o-20">
          <mxGeometry relative="1" as="geometry">
            <mxPoint x="700" y="280" as="sourcePoint" />
            <mxPoint x="364" y="360" as="targetPoint" />
          </mxGeometry>
        </mxCell>
        <mxCell id="42t9e9m5rP8orQ9ALi-o-43" value="não" style="edgeLabel;html=1;align=center;verticalAlign=middle;resizable=0;points=[];" vertex="1" connectable="0" parent="42t9e9m5rP8orQ9ALi-o-41">
          <mxGeometry x="-0.2642" y="2" relative="1" as="geometry">
            <mxPoint x="-19" y="-32" as="offset" />
          </mxGeometry>
        </mxCell>
        <mxCell id="42t9e9m5rP8orQ9ALi-o-13" value="valor 2 &amp;gt;3 valor" style="strokeWidth=2;html=1;shape=mxgraph.flowchart.decision;whiteSpace=wrap;" vertex="1" parent="1">
          <mxGeometry x="630" y="170" width="100" height="100" as="geometry" />
        </mxCell>
        <mxCell id="42t9e9m5rP8orQ9ALi-o-36" style="edgeStyle=orthogonalEdgeStyle;rounded=0;orthogonalLoop=1;jettySize=auto;html=1;entryX=1;entryY=0.5;entryDx=0;entryDy=0;" edge="1" parent="1" source="42t9e9m5rP8orQ9ALi-o-17" target="42t9e9m5rP8orQ9ALi-o-31">
          <mxGeometry relative="1" as="geometry" />
        </mxCell>
        <mxCell id="42t9e9m5rP8orQ9ALi-o-17" value="Mostrar valor 1" style="rounded=0;whiteSpace=wrap;html=1;" vertex="1" parent="1">
          <mxGeometry x="210" y="120" width="120" height="60" as="geometry" />
        </mxCell>
        <mxCell id="42t9e9m5rP8orQ9ALi-o-20" value="mostrar valor 3" style="whiteSpace=wrap;html=1;strokeWidth=2;" vertex="1" parent="1">
          <mxGeometry x="210" y="300" width="120" height="60" as="geometry" />
        </mxCell>
        <mxCell id="42t9e9m5rP8orQ9ALi-o-31" value="FIm" style="rounded=1;whiteSpace=wrap;html=1;" vertex="1" parent="1">
          <mxGeometry x="30" y="120" width="120" height="60" as="geometry" />
        </mxCell>
        <mxCell id="42t9e9m5rP8orQ9ALi-o-22" value="mostrar valor 2" style="whiteSpace=wrap;html=1;strokeWidth=2;" vertex="1" parent="1">
          <mxGeometry x="210" y="220" width="120" height="60" as="geometry" />
        </mxCell>
        <mxCell id="42t9e9m5rP8orQ9ALi-o-37" style="edgeStyle=orthogonalEdgeStyle;rounded=0;orthogonalLoop=1;jettySize=auto;html=1;entryX=0.91;entryY=0.958;entryDx=0;entryDy=0;entryPerimeter=0;" edge="1" parent="1" source="42t9e9m5rP8orQ9ALi-o-22" target="42t9e9m5rP8orQ9ALi-o-31">
          <mxGeometry relative="1" as="geometry" />
        </mxCell>
        <mxCell id="42t9e9m5rP8orQ9ALi-o-38" style="edgeStyle=orthogonalEdgeStyle;rounded=0;orthogonalLoop=1;jettySize=auto;html=1;entryX=0.625;entryY=1.014;entryDx=0;entryDy=0;entryPerimeter=0;" edge="1" parent="1" source="42t9e9m5rP8orQ9ALi-o-20" target="42t9e9m5rP8orQ9ALi-o-31">
          <mxGeometry relative="1" as="geometry" />
        </mxCell>
      </root>
    </mxGraphModel>
  </diagram>
</mxfile>
